M48
;Layer_Color=15896
;FILE_FORMAT=4:2
METRIC,LZ
;TYPE=PLATED
T1F00S00C0.40
T2F00S00C0.90
T3F00S00C1.20
T4F00S00C2.30
;TYPE=NON_PLATED
T5F00S00C2.50
%
T01
X008179Y007231
X00751Y0074
X00727
X00685Y00739
X006708Y007719
X00616Y00767
X00542Y00758
X0053Y00705
X0066Y00811
T02
X00475Y007025
X00495
Y007275
X00475
T03
X007958Y0078
X007704
X00745
X0071Y0065
X006846
X006592
X006338
T04
X004479Y006548
Y007752
T05
X0083Y0062
X0042
Y0081
X0083
M30
