G04 Layer_Color=3116968*
%FSLAX42Y42*%
%MOMM*%
G71*
G01*
G75*
%ADD23C,0.20*%
G36*
X5867Y7494D02*
X5868Y7494D01*
X5869Y7494D01*
X5869Y7494D01*
X5871Y7493D01*
X5871Y7492D01*
X5872Y7492D01*
X5873Y7492D01*
X5906Y7466D01*
X5908Y7465D01*
X5909Y7464D01*
X5909Y7463D01*
X5909Y7462D01*
Y7462D01*
X5910Y7461D01*
Y7461D01*
X5909Y7459D01*
X5909Y7458D01*
X5909Y7458D01*
Y7458D01*
X5908Y7457D01*
X5906Y7456D01*
X5906Y7456D01*
X5905D01*
X5903Y7456D01*
X5902Y7457D01*
X5901Y7457D01*
X5900Y7458D01*
X5900D01*
X5881Y7472D01*
X5914Y7375D01*
X5914Y7374D01*
Y7373D01*
Y7371D01*
X5914Y7370D01*
X5914Y7370D01*
X5913Y7369D01*
X5911Y7369D01*
X5910Y7369D01*
X5910D01*
X5908Y7369D01*
X5906Y7369D01*
X5905Y7370D01*
X5905Y7370D01*
X5905D01*
X5903Y7372D01*
X5902Y7373D01*
X5902Y7374D01*
X5902Y7374D01*
Y7375D01*
X5863Y7487D01*
X5863Y7488D01*
X5863Y7489D01*
Y7491D01*
X5863Y7492D01*
X5863Y7493D01*
X5864Y7494D01*
X5865Y7494D01*
X5866Y7494D01*
X5866D01*
X5867Y7494D01*
D02*
G37*
G36*
X5995Y7493D02*
X5996Y7493D01*
X5998Y7491D01*
X5999Y7490D01*
X6000Y7489D01*
X6001Y7488D01*
X6001Y7487D01*
X6001Y7487D01*
X6039Y7375D01*
X6040Y7374D01*
Y7373D01*
Y7371D01*
X6039Y7370D01*
X6039Y7370D01*
X6038Y7369D01*
X6036Y7369D01*
X6035Y7369D01*
X6035D01*
X6033Y7369D01*
X6032Y7369D01*
X6030Y7370D01*
X6030Y7370D01*
X6030D01*
X6029Y7372D01*
X6028Y7373D01*
X6027Y7374D01*
X6027Y7374D01*
Y7375D01*
X6012Y7419D01*
X5990D01*
X5977Y7371D01*
X5976Y7370D01*
X5976Y7369D01*
X5975Y7369D01*
X5975Y7369D01*
X5974Y7369D01*
X5974Y7369D01*
X5973D01*
X5971Y7369D01*
X5969Y7369D01*
X5968Y7370D01*
X5968Y7370D01*
X5968D01*
X5966Y7372D01*
X5965Y7373D01*
X5964Y7374D01*
X5964Y7374D01*
Y7375D01*
X5964Y7377D01*
Y7378D01*
X5976Y7419D01*
X5974D01*
X5970Y7419D01*
X5967Y7420D01*
X5963Y7421D01*
X5960Y7422D01*
X5958Y7424D01*
X5956Y7425D01*
X5955Y7425D01*
X5955Y7425D01*
X5954Y7426D01*
X5954D01*
X5951Y7429D01*
X5948Y7432D01*
X5946Y7435D01*
X5944Y7437D01*
X5943Y7440D01*
X5942Y7442D01*
X5941Y7443D01*
X5941Y7443D01*
X5941Y7443D01*
Y7444D01*
X5932Y7469D01*
X5932Y7470D01*
X5931Y7472D01*
X5931Y7476D01*
X5931Y7479D01*
X5932Y7481D01*
X5932Y7483D01*
X5933Y7485D01*
X5933Y7486D01*
X5934Y7486D01*
X5936Y7489D01*
X5938Y7490D01*
X5941Y7492D01*
X5943Y7493D01*
X5945Y7493D01*
X5947Y7493D01*
X5948Y7494D01*
X5993D01*
X5995Y7493D01*
D02*
G37*
G36*
X7894Y6845D02*
X7898Y6845D01*
X7901Y6843D01*
X7904Y6842D01*
X7907Y6841D01*
X7909Y6840D01*
X7910Y6839D01*
X7910Y6839D01*
X7910Y6838D01*
X7911D01*
X7914Y6836D01*
X7917Y6833D01*
X7919Y6830D01*
X7921Y6827D01*
X7922Y6825D01*
X7923Y6822D01*
X7923Y6822D01*
X7924Y6821D01*
X7924Y6821D01*
Y6821D01*
X7949Y6746D01*
X7950Y6744D01*
X7950Y6742D01*
X7951Y6739D01*
X7951Y6736D01*
X7950Y6733D01*
X7949Y6731D01*
X7949Y6729D01*
X7948Y6728D01*
X7948Y6728D01*
X7946Y6726D01*
X7943Y6724D01*
X7941Y6723D01*
X7938Y6722D01*
X7936Y6721D01*
X7934Y6721D01*
X7934Y6721D01*
X7901D01*
X7900Y6721D01*
X7899Y6721D01*
X7898Y6722D01*
X7897Y6723D01*
X7896Y6723D01*
X7896D01*
X7895Y6724D01*
X7894Y6726D01*
X7893Y6727D01*
X7893Y6727D01*
X7893Y6728D01*
Y6729D01*
X7893Y6730D01*
X7893Y6731D01*
X7894Y6731D01*
X7894Y6732D01*
X7895Y6732D01*
X7896Y6733D01*
X7897Y6733D01*
X7929D01*
X7930Y6733D01*
X7932Y6734D01*
X7933Y6734D01*
X7933Y6734D01*
X7933D01*
X7935Y6735D01*
X7936Y6736D01*
X7936Y6737D01*
X7936Y6737D01*
X7937Y6738D01*
X7937Y6740D01*
X7938Y6741D01*
Y6743D01*
X7937Y6744D01*
X7937Y6745D01*
X7937Y6745D01*
Y6746D01*
X7911Y6821D01*
X7911Y6823D01*
X7910Y6824D01*
X7909Y6825D01*
X7909Y6825D01*
Y6826D01*
X7908Y6827D01*
X7906Y6829D01*
X7905Y6829D01*
X7905Y6830D01*
X7905D01*
X7903Y6831D01*
X7901Y6832D01*
X7899Y6832D01*
X7898Y6833D01*
X7897Y6833D01*
X7896Y6833D01*
X7863D01*
X7862Y6834D01*
X7861Y6834D01*
X7859Y6835D01*
X7858Y6835D01*
X7858Y6835D01*
X7858D01*
X7856Y6837D01*
X7856Y6838D01*
X7855Y6839D01*
X7855Y6840D01*
X7855Y6840D01*
X7855Y6841D01*
X7855Y6842D01*
X7855Y6843D01*
X7855Y6844D01*
X7856Y6845D01*
X7856Y6845D01*
X7858Y6846D01*
X7859Y6846D01*
X7890D01*
X7894Y6845D01*
D02*
G37*
G36*
X7824Y6846D02*
X7826Y6845D01*
X7827Y6844D01*
X7828Y6843D01*
X7829Y6842D01*
X7830Y6840D01*
X7830Y6840D01*
X7830Y6840D01*
X7847Y6789D01*
X7847Y6788D01*
Y6787D01*
Y6786D01*
X7847Y6785D01*
X7846Y6784D01*
X7845Y6784D01*
X7844Y6783D01*
X7843Y6783D01*
X7818D01*
X7815Y6783D01*
X7813Y6782D01*
X7811Y6782D01*
X7809Y6780D01*
X7808Y6780D01*
X7807Y6779D01*
X7807Y6778D01*
X7806Y6778D01*
X7805Y6775D01*
X7805Y6773D01*
X7805Y6771D01*
Y6769D01*
X7805Y6767D01*
X7805Y6766D01*
X7805Y6765D01*
X7806Y6764D01*
X7810Y6752D01*
X7811Y6749D01*
X7813Y6746D01*
X7814Y6744D01*
X7816Y6742D01*
X7818Y6741D01*
X7819Y6739D01*
X7820Y6739D01*
X7820Y6738D01*
X7823Y6737D01*
X7825Y6735D01*
X7828Y6735D01*
X7830Y6734D01*
X7832Y6734D01*
X7834Y6733D01*
X7861D01*
X7862Y6733D01*
X7864Y6732D01*
X7865Y6732D01*
X7865Y6731D01*
X7865Y6731D01*
X7867Y6730D01*
X7868Y6728D01*
X7868Y6727D01*
X7868Y6727D01*
Y6727D01*
X7869Y6725D01*
Y6724D01*
X7868Y6723D01*
X7868Y6723D01*
X7867Y6722D01*
X7866Y6721D01*
X7865Y6721D01*
X7839D01*
X7837Y6721D01*
X7834Y6721D01*
X7830Y6722D01*
X7826Y6724D01*
X7822Y6725D01*
X7819Y6727D01*
X7817Y6728D01*
X7816Y6728D01*
X7816Y6729D01*
X7815Y6730D01*
X7814Y6730D01*
X7814Y6730D01*
X7812Y6732D01*
X7810Y6734D01*
X7806Y6737D01*
X7803Y6741D01*
X7801Y6744D01*
X7799Y6748D01*
X7799Y6749D01*
X7798Y6750D01*
X7798Y6751D01*
X7798Y6751D01*
X7797Y6752D01*
Y6752D01*
X7793Y6764D01*
X7792Y6767D01*
X7792Y6769D01*
X7792Y6771D01*
Y6773D01*
X7792Y6777D01*
X7792Y6780D01*
X7793Y6783D01*
X7794Y6785D01*
X7794Y6785D01*
X7795Y6786D01*
X7795Y6786D01*
Y6786D01*
X7796Y6788D01*
X7798Y6790D01*
X7799Y6791D01*
X7801Y6792D01*
X7804Y6793D01*
X7807Y6795D01*
X7809Y6795D01*
X7811Y6795D01*
X7812D01*
X7813Y6796D01*
X7833D01*
X7820Y6833D01*
X7776D01*
X7775Y6834D01*
X7774Y6834D01*
X7772Y6835D01*
X7771Y6835D01*
X7771Y6835D01*
X7771D01*
X7769Y6837D01*
X7768Y6838D01*
X7768Y6839D01*
X7768Y6840D01*
X7767Y6840D01*
Y6841D01*
X7768Y6842D01*
X7768Y6843D01*
X7768Y6844D01*
X7769Y6845D01*
X7769Y6845D01*
X7770Y6846D01*
X7771Y6846D01*
X7822D01*
X7824Y6846D01*
D02*
G37*
G36*
X7886Y8147D02*
X7887Y8147D01*
X7887Y8147D01*
X7888Y8146D01*
X7889Y8145D01*
X7890Y8144D01*
X7890Y8144D01*
X7891Y8143D01*
X7932Y8077D01*
X7933Y8076D01*
X7933Y8074D01*
X7934Y8074D01*
Y8073D01*
X7933Y8072D01*
X7933Y8072D01*
X7932Y8071D01*
X7931Y8071D01*
X7931Y8071D01*
X7901D01*
X7906Y8056D01*
X7906Y8056D01*
Y8055D01*
Y8054D01*
X7906Y8053D01*
X7906Y8053D01*
X7905Y8052D01*
X7904Y8052D01*
X7903Y8052D01*
X7903D01*
X7901Y8052D01*
X7900Y8052D01*
X7899Y8053D01*
X7899Y8053D01*
X7899D01*
X7898Y8054D01*
X7897Y8055D01*
X7897Y8056D01*
X7897Y8056D01*
Y8056D01*
X7892Y8071D01*
X7882D01*
X7881Y8071D01*
X7881Y8071D01*
X7879Y8072D01*
X7879Y8072D01*
X7878Y8072D01*
X7878D01*
X7877Y8073D01*
X7876Y8074D01*
X7876Y8075D01*
X7876Y8075D01*
X7876Y8076D01*
Y8077D01*
X7876Y8078D01*
X7876Y8078D01*
X7876Y8079D01*
X7877Y8079D01*
X7877Y8079D01*
X7878Y8080D01*
X7879Y8080D01*
X7889D01*
X7884Y8094D01*
X7883Y8095D01*
Y8096D01*
X7884Y8097D01*
X7884Y8098D01*
X7884Y8098D01*
X7885Y8099D01*
X7886Y8099D01*
X7887Y8099D01*
X7887D01*
X7888Y8099D01*
X7889Y8099D01*
X7890Y8098D01*
X7890Y8098D01*
X7890D01*
X7892Y8097D01*
X7893Y8096D01*
X7893Y8095D01*
X7893Y8095D01*
Y8094D01*
X7898Y8080D01*
X7920D01*
X7882Y8141D01*
X7882Y8142D01*
X7882Y8143D01*
X7881Y8144D01*
X7882Y8145D01*
X7882Y8145D01*
X7882Y8146D01*
X7883Y8146D01*
X7884Y8147D01*
X7885Y8147D01*
X7886D01*
X7886Y8147D01*
D02*
G37*
G36*
X7982D02*
X7983Y8146D01*
X7984Y8145D01*
X7985Y8145D01*
X7986Y8144D01*
X7986Y8143D01*
X7986Y8142D01*
X7986Y8142D01*
X8016Y8056D01*
X8016Y8056D01*
Y8055D01*
Y8054D01*
X8016Y8053D01*
X8015Y8053D01*
X8014Y8052D01*
X8013Y8052D01*
X8013Y8052D01*
X8012D01*
X8011Y8052D01*
X8010Y8052D01*
X8009Y8053D01*
X8009Y8053D01*
X8009D01*
X8007Y8054D01*
X8007Y8055D01*
X8006Y8056D01*
X8006Y8056D01*
Y8056D01*
X7995Y8090D01*
X7978D01*
X7968Y8054D01*
X7968Y8053D01*
X7967Y8053D01*
X7967Y8052D01*
X7967Y8052D01*
X7966Y8052D01*
X7966Y8052D01*
X7965D01*
X7964Y8052D01*
X7962Y8053D01*
X7961Y8053D01*
X7961Y8053D01*
X7961D01*
X7960Y8054D01*
X7959Y8055D01*
X7959Y8056D01*
X7958Y8056D01*
Y8056D01*
X7958Y8058D01*
Y8059D01*
X7967Y8090D01*
X7966D01*
X7963Y8090D01*
X7960Y8091D01*
X7958Y8092D01*
X7955Y8093D01*
X7954Y8094D01*
X7952Y8095D01*
X7952Y8095D01*
X7951Y8095D01*
X7951Y8095D01*
X7951D01*
X7948Y8098D01*
X7946Y8100D01*
X7944Y8102D01*
X7943Y8104D01*
X7942Y8106D01*
X7941Y8108D01*
X7941Y8108D01*
X7941Y8109D01*
X7941Y8109D01*
Y8109D01*
X7934Y8128D01*
X7934Y8129D01*
X7933Y8131D01*
X7933Y8133D01*
X7933Y8136D01*
X7934Y8138D01*
X7934Y8139D01*
X7935Y8140D01*
X7935Y8141D01*
X7935Y8141D01*
X7937Y8143D01*
X7939Y8145D01*
X7940Y8146D01*
X7942Y8146D01*
X7944Y8147D01*
X7945Y8147D01*
X7946Y8147D01*
X7980D01*
X7982Y8147D01*
D02*
G37*
G36*
X5582Y7493D02*
X5585Y7493D01*
X5586Y7493D01*
X5587Y7492D01*
X5587Y7492D01*
X5587D01*
X5590Y7491D01*
X5592Y7491D01*
X5593Y7490D01*
X5594Y7490D01*
X5595Y7489D01*
X5596Y7489D01*
X5596Y7489D01*
X5599Y7487D01*
X5602Y7486D01*
X5605Y7484D01*
X5607Y7482D01*
X5608Y7481D01*
X5610Y7479D01*
X5611Y7479D01*
X5611Y7478D01*
X5612Y7477D01*
X5613Y7476D01*
X5613Y7475D01*
X5613Y7475D01*
X5614Y7474D01*
Y7473D01*
X5613Y7471D01*
X5613Y7471D01*
X5613Y7470D01*
X5612Y7469D01*
X5610Y7469D01*
X5609Y7469D01*
X5609D01*
X5606Y7469D01*
X5605Y7470D01*
X5604Y7471D01*
X5603Y7471D01*
X5603Y7471D01*
X5600Y7474D01*
X5598Y7476D01*
X5596Y7477D01*
X5595Y7477D01*
X5594Y7478D01*
X5593Y7478D01*
X5593Y7479D01*
X5591Y7479D01*
X5590Y7480D01*
X5588Y7481D01*
X5586Y7481D01*
X5585Y7481D01*
X5584Y7481D01*
X5583D01*
X5580Y7481D01*
X5579Y7481D01*
X5578Y7480D01*
X5577Y7480D01*
X5576Y7480D01*
X5576Y7479D01*
X5575D01*
X5573Y7478D01*
X5571Y7477D01*
X5570Y7476D01*
X5570Y7475D01*
Y7475D01*
X5569Y7473D01*
X5568Y7470D01*
X5568Y7468D01*
Y7466D01*
X5568Y7464D01*
X5568Y7462D01*
X5568Y7461D01*
X5568Y7461D01*
Y7461D01*
X5569Y7459D01*
X5570Y7458D01*
X5571Y7456D01*
X5572Y7455D01*
X5573Y7454D01*
X5573Y7453D01*
X5574Y7452D01*
X5574Y7452D01*
X5645Y7378D01*
X5647Y7376D01*
X5647Y7375D01*
X5648Y7374D01*
X5648Y7374D01*
X5648Y7373D01*
Y7372D01*
X5648Y7371D01*
X5647Y7370D01*
X5646Y7369D01*
X5645Y7369D01*
X5644Y7369D01*
X5593D01*
X5592Y7369D01*
X5591Y7369D01*
X5589Y7370D01*
X5588Y7370D01*
X5588Y7371D01*
X5588D01*
X5586Y7372D01*
X5585Y7373D01*
X5585Y7374D01*
X5585Y7375D01*
X5585Y7376D01*
Y7376D01*
X5585Y7378D01*
X5585Y7379D01*
X5585Y7379D01*
X5586Y7380D01*
X5586Y7380D01*
X5587Y7381D01*
X5589Y7381D01*
X5628D01*
X5565Y7445D01*
X5563Y7448D01*
X5561Y7451D01*
X5560Y7454D01*
X5558Y7456D01*
X5557Y7458D01*
X5557Y7459D01*
X5556Y7460D01*
X5556Y7461D01*
X5555Y7463D01*
X5555Y7465D01*
X5555Y7468D01*
Y7470D01*
X5555Y7474D01*
X5556Y7477D01*
X5557Y7480D01*
X5557Y7481D01*
X5558Y7482D01*
X5558Y7483D01*
X5558Y7483D01*
X5559Y7484D01*
Y7484D01*
X5560Y7485D01*
X5561Y7487D01*
X5563Y7488D01*
X5565Y7489D01*
X5568Y7491D01*
X5572Y7492D01*
X5575Y7493D01*
X5576Y7493D01*
X5577Y7493D01*
X5578Y7494D01*
X5580D01*
X5582Y7493D01*
D02*
G37*
G36*
X5703D02*
X5704Y7493D01*
X5706Y7491D01*
X5707Y7490D01*
X5708Y7489D01*
X5709Y7488D01*
X5709Y7487D01*
X5709Y7487D01*
X5747Y7375D01*
X5747Y7374D01*
Y7373D01*
Y7371D01*
X5747Y7370D01*
X5747Y7370D01*
X5746Y7369D01*
X5744Y7369D01*
X5743Y7369D01*
X5743D01*
X5741Y7369D01*
X5740Y7369D01*
X5738Y7370D01*
X5738Y7370D01*
X5738D01*
X5737Y7372D01*
X5735Y7373D01*
X5735Y7374D01*
X5735Y7374D01*
Y7375D01*
X5720Y7419D01*
X5698D01*
X5685Y7371D01*
X5684Y7370D01*
X5684Y7369D01*
X5683Y7369D01*
X5683Y7369D01*
X5682Y7369D01*
X5682Y7369D01*
X5681D01*
X5679Y7369D01*
X5677Y7369D01*
X5676Y7370D01*
X5676Y7370D01*
X5676D01*
X5674Y7372D01*
X5673Y7373D01*
X5672Y7374D01*
X5672Y7374D01*
Y7375D01*
X5672Y7377D01*
Y7378D01*
X5684Y7419D01*
X5682D01*
X5678Y7419D01*
X5675Y7420D01*
X5671Y7421D01*
X5668Y7422D01*
X5666Y7424D01*
X5664Y7425D01*
X5663Y7425D01*
X5662Y7425D01*
X5662Y7426D01*
X5662D01*
X5659Y7429D01*
X5656Y7432D01*
X5654Y7435D01*
X5652Y7437D01*
X5650Y7440D01*
X5650Y7442D01*
X5649Y7443D01*
X5649Y7443D01*
X5649Y7443D01*
Y7444D01*
X5640Y7469D01*
X5640Y7470D01*
X5639Y7472D01*
X5639Y7476D01*
X5639Y7479D01*
X5640Y7481D01*
X5640Y7483D01*
X5641Y7485D01*
X5641Y7486D01*
X5642Y7486D01*
X5644Y7489D01*
X5646Y7490D01*
X5648Y7492D01*
X5651Y7493D01*
X5653Y7493D01*
X5655Y7493D01*
X5656Y7494D01*
X5700D01*
X5703Y7493D01*
D02*
G37*
G36*
X4926Y7825D02*
X4929Y7824D01*
X4929Y7824D01*
X4930Y7824D01*
X4931Y7824D01*
X4931D01*
X4934Y7823D01*
X4935Y7822D01*
X4937Y7822D01*
X4938Y7821D01*
X4939Y7821D01*
X4939Y7821D01*
X4939Y7821D01*
X4942Y7819D01*
X4945Y7817D01*
X4948Y7815D01*
X4950Y7814D01*
X4952Y7812D01*
X4953Y7811D01*
X4954Y7810D01*
X4954Y7810D01*
X4956Y7808D01*
X4956Y7807D01*
X4957Y7806D01*
X4957Y7806D01*
X4957Y7805D01*
Y7804D01*
X4957Y7803D01*
X4956Y7802D01*
X4956Y7802D01*
X4955Y7801D01*
X4954Y7800D01*
X4953Y7800D01*
X4952D01*
X4949Y7801D01*
X4948Y7801D01*
X4947Y7802D01*
X4946Y7803D01*
X4946Y7803D01*
X4943Y7806D01*
X4941Y7807D01*
X4940Y7808D01*
X4939Y7809D01*
X4938Y7809D01*
X4937Y7810D01*
X4937Y7810D01*
X4935Y7811D01*
X4933Y7811D01*
X4931Y7812D01*
X4930Y7812D01*
X4929Y7812D01*
X4927Y7813D01*
X4927D01*
X4924Y7812D01*
X4922Y7812D01*
X4921Y7812D01*
X4920Y7811D01*
X4919Y7811D01*
X4919Y7811D01*
X4919D01*
X4916Y7809D01*
X4915Y7808D01*
X4914Y7807D01*
X4914Y7807D01*
Y7806D01*
X4912Y7804D01*
X4911Y7802D01*
X4911Y7799D01*
Y7797D01*
X4911Y7795D01*
X4911Y7794D01*
X4912Y7793D01*
X4912Y7793D01*
Y7793D01*
X4913Y7791D01*
X4913Y7789D01*
X4914Y7788D01*
X4915Y7786D01*
X4916Y7785D01*
X4917Y7784D01*
X4917Y7783D01*
X4917Y7783D01*
X4989Y7710D01*
X4990Y7708D01*
X4991Y7706D01*
X4991Y7705D01*
X4992Y7705D01*
X4992Y7704D01*
Y7703D01*
X4991Y7702D01*
X4991Y7701D01*
X4990Y7701D01*
X4989Y7700D01*
X4988Y7700D01*
X4936D01*
X4935Y7700D01*
X4934Y7700D01*
X4933Y7701D01*
X4932Y7702D01*
X4931Y7702D01*
X4931D01*
X4930Y7704D01*
X4929Y7705D01*
X4928Y7706D01*
X4928Y7706D01*
X4928Y7707D01*
Y7708D01*
X4928Y7709D01*
X4929Y7710D01*
X4929Y7710D01*
X4929Y7711D01*
X4930Y7711D01*
X4931Y7712D01*
X4932Y7712D01*
X4971D01*
X4909Y7777D01*
X4906Y7780D01*
X4905Y7782D01*
X4903Y7785D01*
X4902Y7787D01*
X4901Y7789D01*
X4900Y7791D01*
X4900Y7792D01*
X4900Y7792D01*
X4899Y7794D01*
X4899Y7797D01*
X4898Y7799D01*
Y7801D01*
X4899Y7805D01*
X4899Y7809D01*
X4900Y7811D01*
X4901Y7813D01*
X4901Y7814D01*
X4901Y7814D01*
X4902Y7815D01*
X4902Y7815D01*
Y7815D01*
X4903Y7817D01*
X4905Y7819D01*
X4906Y7820D01*
X4908Y7821D01*
X4912Y7823D01*
X4915Y7824D01*
X4918Y7824D01*
X4920Y7825D01*
X4921Y7825D01*
X4922Y7825D01*
X4923D01*
X4926Y7825D01*
D02*
G37*
G36*
X5016Y7825D02*
X5020Y7824D01*
X5024Y7823D01*
X5026Y7821D01*
X5029Y7820D01*
X5031Y7819D01*
X5032Y7818D01*
X5032Y7818D01*
X5033Y7818D01*
X5033D01*
X5036Y7815D01*
X5039Y7812D01*
X5041Y7809D01*
X5043Y7806D01*
X5044Y7804D01*
X5045Y7802D01*
X5046Y7801D01*
X5046Y7801D01*
X5046Y7800D01*
Y7800D01*
X5072Y7725D01*
X5072Y7723D01*
X5073Y7721D01*
X5073Y7718D01*
X5073Y7715D01*
X5072Y7712D01*
X5072Y7710D01*
X5071Y7709D01*
X5070Y7708D01*
X5070Y7707D01*
X5068Y7705D01*
X5066Y7703D01*
X5063Y7702D01*
X5061Y7701D01*
X5059Y7700D01*
X5057Y7700D01*
X5056Y7700D01*
X5024D01*
X5023Y7700D01*
X5022Y7700D01*
X5020Y7701D01*
X5019Y7702D01*
X5019Y7702D01*
X5019D01*
X5017Y7704D01*
X5016Y7705D01*
X5016Y7706D01*
X5015Y7706D01*
X5015Y7707D01*
Y7708D01*
X5015Y7709D01*
X5016Y7710D01*
X5016Y7710D01*
X5016Y7711D01*
X5017Y7711D01*
X5018Y7712D01*
X5019Y7712D01*
X5051D01*
X5053Y7713D01*
X5054Y7713D01*
X5055Y7713D01*
X5055Y7713D01*
X5056D01*
X5057Y7714D01*
X5058Y7715D01*
X5059Y7716D01*
X5059Y7716D01*
X5059Y7717D01*
X5060Y7719D01*
X5060Y7720D01*
Y7722D01*
X5060Y7723D01*
X5059Y7724D01*
X5059Y7725D01*
Y7725D01*
X5034Y7800D01*
X5033Y7802D01*
X5032Y7803D01*
X5031Y7804D01*
X5031Y7805D01*
Y7805D01*
X5030Y7806D01*
X5029Y7808D01*
X5027Y7809D01*
X5027Y7809D01*
X5027D01*
X5025Y7810D01*
X5023Y7811D01*
X5022Y7812D01*
X5020Y7812D01*
X5019Y7812D01*
X5018Y7813D01*
X4986D01*
X4984Y7813D01*
X4983Y7813D01*
X4982Y7814D01*
X4981Y7814D01*
X4980Y7815D01*
X4980D01*
X4979Y7816D01*
X4978Y7817D01*
X4977Y7818D01*
X4977Y7819D01*
X4977Y7820D01*
X4977Y7820D01*
X4977Y7822D01*
X4977Y7823D01*
X4978Y7823D01*
X4978Y7824D01*
X4979Y7824D01*
X4980Y7825D01*
X4981Y7825D01*
X5013D01*
X5016Y7825D01*
D02*
G37*
G36*
X6940Y7797D02*
X6941Y7796D01*
X6942Y7796D01*
X6942Y7796D01*
X6944Y7795D01*
X6945Y7795D01*
X6945Y7794D01*
X6946Y7794D01*
X6979Y7769D01*
X6981Y7767D01*
X6982Y7766D01*
X6982Y7765D01*
X6983Y7765D01*
Y7764D01*
X6983Y7764D01*
Y7763D01*
X6983Y7761D01*
X6982Y7760D01*
X6982Y7760D01*
Y7760D01*
X6981Y7759D01*
X6980Y7758D01*
X6979Y7758D01*
X6978D01*
X6976Y7759D01*
X6975Y7759D01*
X6974Y7760D01*
X6973Y7760D01*
X6973D01*
X6954Y7774D01*
X6987Y7677D01*
X6988Y7676D01*
Y7675D01*
Y7673D01*
X6987Y7673D01*
X6987Y7672D01*
X6986Y7671D01*
X6984Y7671D01*
X6983Y7671D01*
X6983D01*
X6981Y7671D01*
X6980Y7672D01*
X6978Y7672D01*
X6978Y7672D01*
X6978D01*
X6977Y7674D01*
X6975Y7675D01*
X6975Y7676D01*
X6975Y7677D01*
Y7677D01*
X6936Y7789D01*
X6936Y7791D01*
X6936Y7792D01*
Y7793D01*
X6936Y7794D01*
X6936Y7795D01*
X6937Y7796D01*
X6938Y7797D01*
X6939Y7797D01*
X6939D01*
X6940Y7797D01*
D02*
G37*
G36*
X7038Y7795D02*
X7042Y7795D01*
X7045Y7793D01*
X7048Y7792D01*
X7051Y7791D01*
X7053Y7789D01*
X7054Y7789D01*
X7054Y7789D01*
X7054Y7788D01*
X7055D01*
X7058Y7786D01*
X7061Y7783D01*
X7063Y7780D01*
X7065Y7777D01*
X7066Y7774D01*
X7067Y7772D01*
X7068Y7772D01*
X7068Y7771D01*
X7068Y7771D01*
Y7771D01*
X7093Y7696D01*
X7094Y7694D01*
X7094Y7692D01*
X7095Y7689D01*
X7095Y7686D01*
X7094Y7683D01*
X7093Y7681D01*
X7093Y7679D01*
X7092Y7678D01*
X7092Y7678D01*
X7090Y7676D01*
X7088Y7674D01*
X7085Y7673D01*
X7083Y7672D01*
X7080Y7671D01*
X7078Y7671D01*
X7078Y7671D01*
X7045D01*
X7044Y7671D01*
X7043Y7671D01*
X7042Y7672D01*
X7041Y7672D01*
X7040Y7673D01*
X7040D01*
X7039Y7674D01*
X7038Y7676D01*
X7037Y7677D01*
X7037Y7677D01*
X7037Y7678D01*
Y7679D01*
X7037Y7680D01*
X7038Y7681D01*
X7038Y7681D01*
X7038Y7682D01*
X7039Y7682D01*
X7040Y7683D01*
X7041Y7683D01*
X7073D01*
X7074Y7683D01*
X7076Y7684D01*
X7077Y7684D01*
X7077Y7684D01*
X7077D01*
X7079Y7685D01*
X7080Y7686D01*
X7080Y7687D01*
X7080Y7687D01*
X7081Y7688D01*
X7081Y7690D01*
X7082Y7691D01*
Y7693D01*
X7081Y7694D01*
X7081Y7695D01*
X7081Y7695D01*
Y7696D01*
X7055Y7771D01*
X7055Y7773D01*
X7054Y7774D01*
X7053Y7775D01*
X7053Y7775D01*
Y7776D01*
X7052Y7777D01*
X7050Y7779D01*
X7049Y7779D01*
X7049Y7780D01*
X7049D01*
X7047Y7781D01*
X7045Y7782D01*
X7043Y7782D01*
X7042Y7783D01*
X7041Y7783D01*
X7040Y7783D01*
X7007D01*
X7006Y7784D01*
X7005Y7784D01*
X7003Y7784D01*
X7002Y7785D01*
X7002Y7785D01*
X7002D01*
X7000Y7787D01*
X7000Y7788D01*
X6999Y7789D01*
X6999Y7789D01*
X6999Y7790D01*
X6999Y7791D01*
X6999Y7792D01*
X6999Y7793D01*
X6999Y7794D01*
X7000Y7794D01*
X7000Y7795D01*
X7002Y7796D01*
X7003Y7796D01*
X7034D01*
X7038Y7795D01*
D02*
G37*
G36*
X4991Y6550D02*
X4995Y6549D01*
X4999Y6548D01*
X5001Y6546D01*
X5004Y6545D01*
X5006Y6544D01*
X5007Y6543D01*
X5007Y6543D01*
X5008Y6543D01*
X5008D01*
X5011Y6540D01*
X5014Y6537D01*
X5016Y6534D01*
X5018Y6531D01*
X5019Y6529D01*
X5020Y6527D01*
X5021Y6526D01*
X5021Y6526D01*
X5021Y6525D01*
Y6525D01*
X5047Y6450D01*
X5047Y6448D01*
X5048Y6446D01*
X5048Y6443D01*
X5048Y6440D01*
X5047Y6437D01*
X5047Y6435D01*
X5046Y6434D01*
X5045Y6433D01*
X5045Y6432D01*
X5043Y6430D01*
X5041Y6428D01*
X5038Y6427D01*
X5036Y6426D01*
X5034Y6425D01*
X5032Y6425D01*
X5031Y6425D01*
X4999D01*
X4998Y6425D01*
X4997Y6425D01*
X4995Y6426D01*
X4994Y6427D01*
X4994Y6427D01*
X4994D01*
X4992Y6429D01*
X4991Y6430D01*
X4991Y6431D01*
X4990Y6431D01*
X4990Y6432D01*
Y6433D01*
X4990Y6434D01*
X4991Y6435D01*
X4991Y6435D01*
X4991Y6436D01*
X4992Y6436D01*
X4993Y6437D01*
X4994Y6437D01*
X5026D01*
X5028Y6438D01*
X5029Y6438D01*
X5030Y6438D01*
X5030Y6438D01*
X5031D01*
X5032Y6439D01*
X5033Y6440D01*
X5034Y6441D01*
X5034Y6441D01*
X5034Y6442D01*
X5035Y6444D01*
X5035Y6445D01*
Y6447D01*
X5035Y6448D01*
X5034Y6449D01*
X5034Y6450D01*
Y6450D01*
X5009Y6525D01*
X5008Y6527D01*
X5007Y6528D01*
X5006Y6529D01*
X5006Y6530D01*
Y6530D01*
X5005Y6531D01*
X5004Y6533D01*
X5002Y6534D01*
X5002Y6534D01*
X5002D01*
X5000Y6535D01*
X4998Y6536D01*
X4997Y6537D01*
X4995Y6537D01*
X4994Y6537D01*
X4993Y6538D01*
X4961D01*
X4959Y6538D01*
X4958Y6538D01*
X4957Y6539D01*
X4956Y6539D01*
X4955Y6540D01*
X4955D01*
X4954Y6541D01*
X4953Y6542D01*
X4952Y6543D01*
X4952Y6544D01*
X4952Y6545D01*
X4952Y6545D01*
X4952Y6547D01*
X4952Y6548D01*
X4953Y6548D01*
X4953Y6549D01*
X4954Y6549D01*
X4955Y6550D01*
X4956Y6550D01*
X4988D01*
X4991Y6550D01*
D02*
G37*
G36*
X7491Y6841D02*
X7492Y6840D01*
X7492Y6840D01*
X7494Y6839D01*
X7495Y6838D01*
X7496Y6837D01*
X7497Y6836D01*
X7497Y6836D01*
X7552Y6749D01*
X7552Y6747D01*
X7553Y6746D01*
X7553Y6745D01*
Y6744D01*
X7553Y6743D01*
X7552Y6742D01*
X7551Y6741D01*
X7550Y6741D01*
X7549Y6741D01*
X7511D01*
X7517Y6722D01*
X7517Y6721D01*
Y6720D01*
Y6718D01*
X7517Y6718D01*
X7517Y6717D01*
X7516Y6716D01*
X7514Y6716D01*
X7513Y6716D01*
X7513D01*
X7511Y6716D01*
X7509Y6717D01*
X7508Y6717D01*
X7508Y6717D01*
X7508D01*
X7507Y6719D01*
X7505Y6720D01*
X7505Y6721D01*
X7505Y6722D01*
Y6722D01*
X7498Y6741D01*
X7486D01*
X7485Y6741D01*
X7484Y6741D01*
X7482Y6742D01*
X7481Y6742D01*
X7481Y6743D01*
X7481D01*
X7479Y6744D01*
X7478Y6745D01*
X7478Y6746D01*
X7477Y6747D01*
X7477Y6748D01*
Y6748D01*
X7477Y6750D01*
X7478Y6751D01*
X7478Y6751D01*
X7479Y6752D01*
X7479Y6752D01*
X7480Y6753D01*
X7481Y6753D01*
X7494D01*
X7488Y6772D01*
X7487Y6773D01*
Y6774D01*
X7488Y6775D01*
X7488Y6776D01*
X7488Y6776D01*
X7489Y6777D01*
X7491Y6778D01*
X7492Y6778D01*
X7492D01*
X7494Y6778D01*
X7495Y6777D01*
X7496Y6776D01*
X7497Y6776D01*
X7497D01*
X7498Y6775D01*
X7499Y6773D01*
X7500Y6772D01*
X7500Y6772D01*
Y6772D01*
X7507Y6753D01*
X7536D01*
X7486Y6833D01*
X7485Y6834D01*
X7485Y6835D01*
X7485Y6836D01*
X7485Y6838D01*
X7485Y6839D01*
X7486Y6839D01*
X7487Y6840D01*
X7488Y6841D01*
X7489Y6841D01*
X7491D01*
X7491Y6841D01*
D02*
G37*
G36*
X7587Y6840D02*
X7591Y6840D01*
X7594Y6838D01*
X7597Y6837D01*
X7599Y6836D01*
X7602Y6834D01*
X7602Y6834D01*
X7603Y6834D01*
X7603Y6833D01*
X7603D01*
X7607Y6831D01*
X7609Y6828D01*
X7612Y6825D01*
X7614Y6822D01*
X7615Y6819D01*
X7616Y6817D01*
X7616Y6817D01*
X7616Y6816D01*
X7617Y6816D01*
Y6816D01*
X7642Y6741D01*
X7643Y6739D01*
X7643Y6737D01*
X7643Y6734D01*
X7643Y6731D01*
X7643Y6728D01*
X7642Y6726D01*
X7641Y6724D01*
X7641Y6723D01*
X7641Y6723D01*
X7639Y6721D01*
X7636Y6719D01*
X7634Y6718D01*
X7631Y6717D01*
X7629Y6716D01*
X7627Y6716D01*
X7626Y6716D01*
X7594D01*
X7593Y6716D01*
X7592Y6716D01*
X7590Y6717D01*
X7589Y6717D01*
X7589Y6718D01*
X7589D01*
X7587Y6719D01*
X7587Y6721D01*
X7586Y6721D01*
X7586Y6722D01*
X7586Y6723D01*
Y6724D01*
X7586Y6725D01*
X7586Y6726D01*
X7586Y6726D01*
X7587Y6727D01*
X7587Y6727D01*
X7589Y6728D01*
X7590Y6728D01*
X7621D01*
X7623Y6728D01*
X7624Y6729D01*
X7626Y6729D01*
X7626Y6729D01*
X7626D01*
X7627Y6730D01*
X7628Y6731D01*
X7629Y6731D01*
X7629Y6732D01*
X7630Y6733D01*
X7630Y6735D01*
X7630Y6736D01*
Y6738D01*
X7630Y6739D01*
X7630Y6740D01*
X7630Y6740D01*
Y6741D01*
X7604Y6816D01*
X7603Y6818D01*
X7602Y6819D01*
X7602Y6820D01*
X7602Y6820D01*
Y6821D01*
X7600Y6822D01*
X7599Y6824D01*
X7598Y6824D01*
X7598Y6825D01*
X7597D01*
X7596Y6826D01*
X7594Y6827D01*
X7592Y6827D01*
X7591Y6828D01*
X7589Y6828D01*
X7588Y6828D01*
X7556D01*
X7555Y6829D01*
X7554Y6829D01*
X7552Y6829D01*
X7551Y6830D01*
X7551Y6830D01*
X7551D01*
X7549Y6832D01*
X7548Y6833D01*
X7548Y6834D01*
X7548Y6834D01*
X7547Y6835D01*
X7547Y6836D01*
X7547Y6837D01*
X7548Y6838D01*
X7548Y6839D01*
X7549Y6839D01*
X7549Y6840D01*
X7550Y6841D01*
X7551Y6841D01*
X7583D01*
X7587Y6840D01*
D02*
G37*
G36*
X4922Y6549D02*
X4923Y6549D01*
X4925Y6548D01*
X4925Y6548D01*
X4925Y6548D01*
X4926Y6546D01*
X4927Y6545D01*
X4928Y6544D01*
X4928Y6544D01*
Y6544D01*
X4928Y6543D01*
X4928Y6542D01*
X4928Y6540D01*
X4928Y6539D01*
X4928Y6539D01*
X4927Y6538D01*
X4925Y6538D01*
X4924Y6537D01*
X4899D01*
X4896Y6537D01*
X4893Y6536D01*
X4891Y6536D01*
X4889Y6535D01*
X4888Y6534D01*
X4887Y6533D01*
X4887Y6532D01*
X4887Y6532D01*
X4886Y6530D01*
X4886Y6527D01*
Y6525D01*
X4886Y6523D01*
X4886Y6521D01*
X4886Y6520D01*
X4887Y6519D01*
X4887Y6519D01*
X4888Y6516D01*
X4889Y6514D01*
X4891Y6511D01*
X4892Y6509D01*
X4894Y6508D01*
X4895Y6507D01*
X4896Y6506D01*
X4896Y6506D01*
X4899Y6504D01*
X4901Y6502D01*
X4904Y6501D01*
X4906Y6501D01*
X4909Y6500D01*
X4910Y6500D01*
X4911Y6500D01*
X4925D01*
X4926Y6499D01*
X4928Y6499D01*
X4929Y6498D01*
X4929Y6498D01*
X4929Y6498D01*
X4931Y6496D01*
X4932Y6495D01*
X4932Y6494D01*
X4932Y6494D01*
Y6494D01*
X4933Y6492D01*
Y6490D01*
X4933Y6489D01*
X4932Y6489D01*
Y6489D01*
X4931Y6488D01*
X4930Y6488D01*
X4929Y6487D01*
X4916D01*
X4913Y6487D01*
X4911Y6486D01*
X4909Y6486D01*
X4907Y6485D01*
X4906Y6484D01*
X4905Y6483D01*
X4904Y6482D01*
X4904Y6482D01*
X4903Y6480D01*
X4903Y6477D01*
X4902Y6475D01*
Y6473D01*
X4903Y6471D01*
X4903Y6470D01*
X4903Y6469D01*
X4903Y6469D01*
X4908Y6456D01*
X4909Y6453D01*
X4910Y6451D01*
X4912Y6449D01*
X4914Y6446D01*
X4915Y6445D01*
X4916Y6444D01*
X4917Y6443D01*
X4918Y6443D01*
X4921Y6441D01*
X4923Y6440D01*
X4926Y6439D01*
X4928Y6438D01*
X4930Y6438D01*
X4931Y6437D01*
X4959D01*
X4960Y6437D01*
X4962Y6436D01*
X4963Y6436D01*
X4963Y6435D01*
X4963Y6435D01*
X4965Y6434D01*
X4965Y6432D01*
X4966Y6431D01*
X4966Y6431D01*
Y6431D01*
X4966Y6429D01*
Y6428D01*
X4966Y6427D01*
X4966Y6427D01*
Y6427D01*
X4965Y6426D01*
X4964Y6425D01*
X4962Y6425D01*
X4937D01*
X4935Y6425D01*
X4932Y6425D01*
X4928Y6426D01*
X4924Y6428D01*
X4920Y6430D01*
X4916Y6431D01*
X4915Y6432D01*
X4914Y6433D01*
X4913Y6433D01*
X4913Y6434D01*
X4912Y6434D01*
X4912Y6434D01*
X4910Y6436D01*
X4908Y6438D01*
X4904Y6441D01*
X4901Y6445D01*
X4899Y6449D01*
X4897Y6452D01*
X4897Y6453D01*
X4896Y6454D01*
X4896Y6455D01*
X4895Y6456D01*
X4895Y6456D01*
Y6456D01*
X4891Y6469D01*
X4890Y6471D01*
X4890Y6474D01*
X4889Y6476D01*
Y6478D01*
Y6480D01*
X4890Y6481D01*
X4890Y6482D01*
Y6483D01*
X4890Y6485D01*
X4891Y6487D01*
X4892Y6489D01*
X4893Y6490D01*
X4894Y6492D01*
X4894Y6493D01*
X4895Y6493D01*
X4895Y6493D01*
X4892Y6495D01*
X4889Y6497D01*
X4887Y6499D01*
X4885Y6501D01*
X4884Y6502D01*
X4883Y6504D01*
X4882Y6504D01*
X4882Y6505D01*
X4880Y6507D01*
X4878Y6510D01*
X4877Y6512D01*
X4876Y6514D01*
X4875Y6516D01*
X4874Y6517D01*
X4874Y6518D01*
X4874Y6519D01*
X4873Y6521D01*
X4873Y6523D01*
X4872Y6527D01*
Y6531D01*
X4873Y6534D01*
X4873Y6537D01*
X4874Y6539D01*
X4874Y6539D01*
X4874Y6540D01*
X4874Y6540D01*
Y6540D01*
X4876Y6542D01*
X4877Y6543D01*
X4878Y6545D01*
X4880Y6546D01*
X4883Y6547D01*
X4887Y6549D01*
X4890Y6549D01*
X4891Y6549D01*
X4892Y6550D01*
X4893Y6550D01*
X4921D01*
X4922Y6549D01*
D02*
G37*
%LPC*%
G36*
X5991Y7481D02*
X5953D01*
X5951Y7481D01*
X5950Y7481D01*
X5948Y7480D01*
X5947Y7479D01*
X5946Y7479D01*
X5946Y7478D01*
X5946Y7478D01*
X5945Y7477D01*
X5945Y7476D01*
X5944Y7474D01*
X5944Y7473D01*
X5944Y7472D01*
Y7470D01*
X5945Y7469D01*
X5945Y7469D01*
Y7469D01*
X5953Y7443D01*
X5954Y7441D01*
X5955Y7440D01*
X5956Y7438D01*
X5957Y7437D01*
X5958Y7436D01*
X5959Y7435D01*
X5960Y7434D01*
X5960Y7434D01*
X5962Y7433D01*
X5964Y7432D01*
X5965Y7432D01*
X5967Y7431D01*
X5968Y7431D01*
X5969Y7431D01*
X6008D01*
X5991Y7481D01*
D02*
G37*
G36*
X7979Y8138D02*
X7950D01*
X7949Y8137D01*
X7947Y8137D01*
X7946Y8137D01*
X7945Y8136D01*
X7945Y8136D01*
X7944Y8135D01*
X7944Y8135D01*
X7944Y8135D01*
X7943Y8134D01*
X7943Y8132D01*
X7943Y8131D01*
X7943Y8130D01*
Y8129D01*
X7943Y8129D01*
X7944Y8128D01*
Y8128D01*
X7950Y8109D01*
X7951Y8107D01*
X7952Y8106D01*
X7952Y8105D01*
X7953Y8104D01*
X7954Y8103D01*
X7955Y8102D01*
X7955Y8102D01*
X7955Y8102D01*
X7957Y8101D01*
X7958Y8100D01*
X7959Y8100D01*
X7961Y8100D01*
X7962Y8099D01*
X7962Y8099D01*
X7992D01*
X7979Y8138D01*
D02*
G37*
G36*
X5699Y7481D02*
X5661D01*
X5659Y7481D01*
X5657Y7481D01*
X5656Y7480D01*
X5655Y7479D01*
X5654Y7479D01*
X5654Y7478D01*
X5653Y7478D01*
X5653Y7477D01*
X5652Y7476D01*
X5652Y7474D01*
X5652Y7473D01*
X5652Y7472D01*
Y7470D01*
X5652Y7469D01*
X5653Y7469D01*
Y7469D01*
X5661Y7443D01*
X5662Y7441D01*
X5663Y7440D01*
X5664Y7438D01*
X5665Y7437D01*
X5666Y7436D01*
X5667Y7435D01*
X5668Y7434D01*
X5668Y7434D01*
X5670Y7433D01*
X5672Y7432D01*
X5673Y7432D01*
X5675Y7431D01*
X5676Y7431D01*
X5677Y7431D01*
X5716D01*
X5699Y7481D01*
D02*
G37*
%LPD*%
D23*
X6625Y7510D02*
Y7960D01*
X6875Y7510D02*
Y7960D01*
X6625D02*
X6875D01*
X6625Y7510D02*
X6875D01*
X5775Y7555D02*
Y8005D01*
X5525Y7555D02*
Y8005D01*
Y7555D02*
X5775D01*
X5525Y8005D02*
X5775D01*
X6075Y7555D02*
Y8005D01*
X5825Y7555D02*
Y8005D01*
Y7555D02*
X6075D01*
X5825Y8005D02*
X6075D01*
X7985Y6210D02*
Y6660D01*
X7735Y6210D02*
Y6660D01*
Y6210D02*
X7985D01*
X7735Y6660D02*
X7985D01*
X7685Y6205D02*
Y6655D01*
X7435Y6205D02*
Y6655D01*
Y6205D02*
X7685D01*
X7435Y6655D02*
X7685D01*
X4740Y6375D02*
X5190D01*
X4740Y6125D02*
X5190D01*
Y6375D01*
X4740Y6125D02*
Y6375D01*
Y8125D02*
X5190D01*
X4740Y7875D02*
X5190D01*
Y8125D01*
X4740Y7875D02*
Y8125D01*
X7365Y7975D02*
X7815D01*
X7365Y8225D02*
X7815D01*
X7365Y7975D02*
Y8225D01*
X7815Y7975D02*
Y8225D01*
M02*
