G04 Layer_Physical_Order=2*
G04 Layer_Color=33789*
%FSLAX42Y42*%
%MOMM*%
G71*
G01*
G75*
%ADD13R,1.10X1.70*%
%ADD15C,0.30*%
%ADD16C,1.50*%
%ADD17C,1.80*%
%ADD18R,1.80X1.80*%
%ADD19C,3.80*%
%ADD20R,1.50X1.50*%
%ADD21C,0.90*%
%ADD22R,1.70X1.10*%
D13*
X5100Y6250D02*
D03*
X4830D02*
D03*
X5100Y8000D02*
D03*
X4830D02*
D03*
X7455Y8100D02*
D03*
X7725D02*
D03*
D15*
X6846Y6500D02*
Y6654D01*
X6610Y6890D02*
X6846Y6654D01*
X6380Y6890D02*
X6610D01*
X6592Y6500D02*
Y6658D01*
X6486Y6764D02*
X6592Y6658D01*
X6328Y6764D02*
X6486D01*
X5649Y7443D02*
X6328Y6764D01*
X5949Y7321D02*
X6380Y6890D01*
X5649Y7443D02*
Y7645D01*
X5949Y7321D02*
Y7645D01*
X5485Y7915D02*
X5679D01*
X5420Y7850D02*
X5485Y7915D01*
X5420Y7580D02*
Y7850D01*
X5839Y7783D02*
X6454D01*
X5799Y7823D02*
X5839Y7783D01*
X6454D02*
X6637Y7600D01*
X6750Y7870D02*
Y8050D01*
X6690Y8110D02*
X6750Y8050D01*
X6600Y8110D02*
X6690D01*
X6160Y7670D02*
Y7783D01*
X6621Y7719D02*
X6708D01*
X6425Y7915D02*
X6621Y7719D01*
X5950Y7915D02*
X6425D01*
X7270Y7400D02*
X7510D01*
X7100Y6290D02*
Y6500D01*
X8179Y6479D02*
Y7231D01*
X7990Y6290D02*
X8179Y6479D01*
X5100Y6290D02*
X7990D01*
X5100Y6250D02*
Y6290D01*
X6975Y6955D02*
X7344Y6586D01*
X6975Y6955D02*
Y7534D01*
X7344Y6585D02*
X7860D01*
X6850Y7390D02*
X6975D01*
X7958Y7708D02*
Y7800D01*
X7850Y7600D02*
X7958Y7708D01*
X6909Y7600D02*
X7850D01*
X5100Y6250D02*
Y7050D01*
X5300D01*
X5700Y8150D02*
X5799Y8051D01*
X4850Y8150D02*
X5700D01*
X4830Y8130D02*
X4850Y8150D01*
X4830Y8000D02*
Y8130D01*
X5799Y7823D02*
Y8051D01*
X6750Y7600D02*
X6909D01*
X5100Y7050D02*
Y8000D01*
X5949Y7645D02*
X5950D01*
X6909Y7600D02*
X6975Y7534D01*
X6637Y7600D02*
X6750D01*
X4830Y6250D02*
Y6493D01*
X4775Y6548D02*
X4830Y6493D01*
X4479Y6548D02*
X4775D01*
X5649Y7645D02*
X5650D01*
X4479Y7752D02*
X4775D01*
X4830Y7807D01*
Y8000D01*
X7725Y7821D02*
Y8100D01*
X7455Y7805D02*
Y8100D01*
D16*
X4950Y7275D02*
D03*
X4750D02*
D03*
Y7025D02*
D03*
D17*
X7704Y7800D02*
D03*
X7958D02*
D03*
X6338Y6500D02*
D03*
X6846D02*
D03*
X6592D02*
D03*
D18*
X7450Y7800D02*
D03*
X7100Y6500D02*
D03*
D19*
X4479Y6548D02*
D03*
Y7752D02*
D03*
D20*
X4950Y7025D02*
D03*
D21*
X5420Y7580D02*
D03*
X6160Y7670D02*
D03*
X6600Y8110D02*
D03*
X7510Y7400D02*
D03*
X7270D02*
D03*
X6850Y7390D02*
D03*
X5300Y7050D02*
D03*
X8179Y7231D02*
D03*
X6708Y7719D02*
D03*
D22*
X6750Y7870D02*
D03*
Y7600D02*
D03*
X5650Y7645D02*
D03*
Y7915D02*
D03*
X5950Y7645D02*
D03*
Y7915D02*
D03*
X7860Y6300D02*
D03*
Y6570D02*
D03*
X7560Y6295D02*
D03*
Y6565D02*
D03*
M02*
