G04 Layer_Color=8388736*
%FSLAX42Y42*%
%MOMM*%
G71*
G01*
G75*
%ADD24O,2.44X0.69*%
%ADD25R,2.94X1.94*%
%ADD26O,2.84X1.04*%
%ADD27R,1.44X2.04*%
%ADD28R,1.34X2.04*%
%ADD29C,1.84*%
%ADD30C,2.14*%
%ADD31R,2.14X2.14*%
%ADD32C,4.14*%
%ADD33R,1.84X1.84*%
%ADD34C,1.24*%
D24*
X6405Y7857D02*
D03*
Y7922D02*
D03*
X7095Y7078D02*
D03*
Y7143D02*
D03*
Y7207D02*
D03*
Y7273D02*
D03*
Y7338D02*
D03*
Y7403D02*
D03*
Y7467D02*
D03*
Y7533D02*
D03*
Y7598D02*
D03*
Y7662D02*
D03*
Y7727D02*
D03*
Y7793D02*
D03*
Y7857D02*
D03*
Y7922D02*
D03*
X6405Y7078D02*
D03*
Y7143D02*
D03*
Y7207D02*
D03*
Y7273D02*
D03*
Y7338D02*
D03*
Y7403D02*
D03*
Y7467D02*
D03*
Y7533D02*
D03*
Y7598D02*
D03*
Y7662D02*
D03*
Y7727D02*
D03*
Y7793D02*
D03*
D25*
X5500Y6750D02*
D03*
X5860D02*
D03*
D26*
X8000Y6977D02*
D03*
Y7104D02*
D03*
Y6850D02*
D03*
Y7231D02*
D03*
X7510Y6850D02*
D03*
Y6977D02*
D03*
Y7104D02*
D03*
Y7231D02*
D03*
D27*
X5915Y6300D02*
D03*
X5645D02*
D03*
D28*
X5485Y7300D02*
D03*
X5785D02*
D03*
D29*
X4950Y7275D02*
D03*
X4750D02*
D03*
Y7025D02*
D03*
D30*
X7704Y7800D02*
D03*
X7958D02*
D03*
X6338Y6500D02*
D03*
X6846D02*
D03*
X6592D02*
D03*
D31*
X7450Y7800D02*
D03*
X7100Y6500D02*
D03*
D32*
X4479Y6548D02*
D03*
Y7752D02*
D03*
D33*
X4950Y7025D02*
D03*
D34*
X5420Y7580D02*
D03*
X6160Y7670D02*
D03*
X6600Y8110D02*
D03*
X7510Y7400D02*
D03*
X7270D02*
D03*
X6850Y7390D02*
D03*
X5300Y7050D02*
D03*
X8179Y7231D02*
D03*
X6708Y7719D02*
D03*
M02*
